<svg id="email" xmlns="http://www.w3.org/2000/svg" width="15.469" height="11.783" viewBox="0 0 15.469 11.783">
  <g id="Group_2328" data-name="Group 2328" transform="translate(0 0)">
    <path id="Path_10857" data-name="Path 10857" d="M14.109,61H1.36A1.362,1.362,0,0,0,0,62.36v9.064a1.362,1.362,0,0,0,1.36,1.36h12.75a1.362,1.362,0,0,0,1.36-1.36V62.36A1.362,1.362,0,0,0,14.109,61Zm-.188.906L7.763,68.065,1.552,61.906ZM.906,71.236V62.543l4.365,4.328Zm.641.641,4.368-4.368,1.53,1.517a.453.453,0,0,0,.64,0l1.492-1.492,4.344,4.344Zm13.015-.641-4.344-4.344,4.344-4.344Z" transform="translate(0 -61)" fill="#e0e0e0"/>
  </g>
</svg>
