<svg xmlns="http://www.w3.org/2000/svg" width="16.453" height="16.482" viewBox="0 0 16.453 16.482">
  <path id="phone-call_1_" data-name="phone-call (1)" d="M11.455,3.889a3.611,3.611,0,0,1,2.852,2.852M11.455,1A6.5,6.5,0,0,1,17.2,6.734M16.474,12.5v2.166A1.444,1.444,0,0,1,14.9,16.107,14.291,14.291,0,0,1,8.668,13.89,14.082,14.082,0,0,1,4.335,9.557,14.291,14.291,0,0,1,2.118,3.3,1.444,1.444,0,0,1,3.555,1.722H5.721A1.444,1.444,0,0,1,7.166,2.964a9.272,9.272,0,0,0,.505,2.029,1.444,1.444,0,0,1-.325,1.524l-.917.917a11.554,11.554,0,0,0,4.333,4.333l.917-.917a1.444,1.444,0,0,1,1.524-.325,9.272,9.272,0,0,0,2.029.505A1.444,1.444,0,0,1,16.474,12.5Z" transform="translate(-1.461 -0.282)" fill="none" stroke="#e0e0e0" stroke-linecap="round" stroke-linejoin="round" stroke-width="1.3"/>
</svg>
