<svg xmlns="http://www.w3.org/2000/svg" xmlns:xlink="http://www.w3.org/1999/xlink" width="45" height="49" viewBox="0 0 45 49">
  <defs>
    <linearGradient id="linear-gradient" x1="0.5" x2="0.5" y2="1" gradientUnits="objectBoundingBox">
      <stop offset="0" stop-color="#ff564f"/>
      <stop offset="1" stop-color="#fad029"/>
    </linearGradient>
  </defs>
  <g id="idea" transform="translate(-20.05 0)">
    <path id="Union_8" data-name="Union 8" d="M-1855.236-981a2.366,2.366,0,0,1-2.363-2.372v-.347a2.41,2.41,0,0,1,.144-.791h-.4a2.366,2.366,0,0,1-2.363-2.373v-.347a2.367,2.367,0,0,1,1.748-2.276v-.636a7.805,7.805,0,0,0-2.939-6.193,14.894,14.894,0,0,1-5.783-12.164,14.83,14.83,0,0,1,14.026-14.392,14.622,14.622,0,0,1,10.9,4.071,14.724,14.724,0,0,1,4.574,10.726,14.738,14.738,0,0,1-5.573,11.585,8.175,8.175,0,0,0-3.161,6.367v.636a2.357,2.357,0,0,1,1.749,2.276v.347a2.366,2.366,0,0,1-2.363,2.373h-.4a2.406,2.406,0,0,1,.144.791v.347a2.366,2.366,0,0,1-2.363,2.372Zm-.787-2.73v.347a.793.793,0,0,0,.787.791h5.572a.793.793,0,0,0,.787-.791v-.347a.787.787,0,0,0-.787-.791h-5.572A.793.793,0,0,0-1856.023-983.73Zm-2.624-3.5v.347a.793.793,0,0,0,.788.791h10.817a.792.792,0,0,0,.787-.791v-.347a.792.792,0,0,0-.787-.79h-10.817A.793.793,0,0,0-1858.647-987.232Zm8.734-2.372h1.921v-.54a9.716,9.716,0,0,1,3.748-7.6,13.113,13.113,0,0,0,4.957-10.35,13.153,13.153,0,0,0-4.083-9.578,13.076,13.076,0,0,0-9.742-3.637,13.245,13.245,0,0,0-12.528,12.848,13.338,13.338,0,0,0,5.169,10.871,9.4,9.4,0,0,1,3.564,7.447v.54h1.922v-8.942h-1.614a2.769,2.769,0,0,1-2.758-2.768v-.435a2.769,2.769,0,0,1,2.758-2.768h.432a2.769,2.769,0,0,1,2.758,2.768v1.621h1.922v-1.621a2.769,2.769,0,0,1,2.757-2.768h.433a2.769,2.769,0,0,1,2.757,2.768v.435a2.769,2.769,0,0,1-2.757,2.768h-1.614Zm-3.5,0h1.922v-8.942h-1.922Zm3.5-12.135v1.621h1.614a1.184,1.184,0,0,0,1.182-1.187v-.434a1.183,1.183,0,0,0-1.182-1.186h-.433A1.183,1.183,0,0,0-1849.913-1001.739Zm-7.869,0v.434a1.184,1.184,0,0,0,1.182,1.187h1.614v-1.621a1.183,1.183,0,0,0-1.182-1.186h-.432A1.183,1.183,0,0,0-1857.782-1001.739Zm23.459-7.538v-1.58h4.372v1.58Zm-40.628,0v-1.58h4.373v1.58Zm33.778-13.228,3.092-3.092,1.117,1.118-3.092,3.092Zm-26.762-1.98,1.116-1.117,3.092,3.091-1.117,1.117Zm14.7-1.142V-1030h1.579v4.372Z" transform="translate(1895 1030)" fill="url(#linear-gradient)"/>
  </g>
</svg>
