<svg xmlns="http://www.w3.org/2000/svg" xmlns:xlink="http://www.w3.org/1999/xlink" width="45.3" height="44.301" viewBox="0 0 45.3 44.301">
  <defs>
    <linearGradient id="linear-gradient" x1="0.5" x2="0.5" y2="1" gradientUnits="objectBoundingBox">
      <stop offset="0" stop-color="#ff564f"/>
      <stop offset="1" stop-color="#fad029"/>
    </linearGradient>
  </defs>
  <g id="group" transform="translate(0.15 -4.772)">
    <path id="Union_5" data-name="Union 5" d="M-2231.877-973.076a8.407,8.407,0,0,0-8-8.433q-.222.015-.447.015t-.448-.015a8.406,8.406,0,0,0-8,8.433h-1.877a10.29,10.29,0,0,1,6.525-9.607,6.533,6.533,0,0,1-2.772-5.378,6.528,6.528,0,0,1,6.568-6.568,6.528,6.528,0,0,1,6.567,6.568,6.534,6.534,0,0,1-2.772,5.378,10.29,10.29,0,0,1,6.525,9.608Zm-8.024-10.313a4.639,4.639,0,0,0,4.271-4.673,4.646,4.646,0,0,0-4.691-4.692,4.646,4.646,0,0,0-4.692,4.692,4.64,4.64,0,0,0,4.272,4.673c.139-.005.279-.008.42-.008S-2240.04-983.395-2239.9-983.389Zm-16.334,10.313a8.406,8.406,0,0,0-8-8.433q-.222.015-.447.015t-.448-.015a8.407,8.407,0,0,0-8,8.433H-2275a10.29,10.29,0,0,1,6.525-9.607,6.534,6.534,0,0,1-2.772-5.378,6.528,6.528,0,0,1,6.568-6.568,6.527,6.527,0,0,1,6.567,6.568,6.532,6.532,0,0,1-2.771,5.378,10.29,10.29,0,0,1,6.524,9.607Zm-8.024-10.313a4.64,4.64,0,0,0,4.272-4.673,4.646,4.646,0,0,0-4.692-4.692,4.647,4.647,0,0,0-4.692,4.692,4.641,4.641,0,0,0,4.272,4.673c.139-.005.279-.008.42-.008S-2264.4-983.395-2264.259-983.389Zm20.2-12.14a8.407,8.407,0,0,0-7.945-8.43q-.246.018-.5.018c-.168,0-.334-.006-.5-.018a8.407,8.407,0,0,0-7.946,8.43h-1.876a10.289,10.289,0,0,1,6.519-9.605,6.533,6.533,0,0,1-2.766-5.374,6.528,6.528,0,0,1,6.568-6.568,6.528,6.528,0,0,1,6.567,6.568,6.533,6.533,0,0,1-2.766,5.374,10.29,10.29,0,0,1,6.519,9.605Zm-7.976-10.311a4.639,4.639,0,0,0,4.223-4.669,4.646,4.646,0,0,0-4.691-4.692,4.647,4.647,0,0,0-4.692,4.692,4.64,4.64,0,0,0,4.224,4.669c.155-.007.311-.01.468-.01S-2252.187-1005.847-2252.032-1005.841Z" transform="translate(2275 1022)" stroke="#fff" stroke-width="0.3" fill="url(#linear-gradient)"/>
  </g>
</svg>
