<svg xmlns="http://www.w3.org/2000/svg" xmlns:xlink="http://www.w3.org/1999/xlink" width="45.239" height="45.273" viewBox="0 0 45.239 45.273">
  <defs>
    <linearGradient id="linear-gradient" x1="0.5" x2="0.5" y2="1" gradientUnits="objectBoundingBox">
      <stop offset="0" stop-color="#ff564f"/>
      <stop offset="1" stop-color="#fad029"/>
    </linearGradient>
  </defs>
  <g id="offer" transform="translate(0.099 -0.173)">
    <path id="Union_7" data-name="Union 7" d="M-2630.1-984.654a11.067,11.067,0,0,1-2.265-.234.526.526,0,0,1-.055-.014l-10.306-2.891a2.962,2.962,0,0,0-2.21.241l-1.725.924-.019.7a.838.838,0,0,1-.838.815h-.023l-6.643-.183a.838.838,0,0,1-.814-.86l.4-14.573a.836.836,0,0,1,.86-.814l6.644.183a.838.838,0,0,1,.814.86l-.039,1.4a10.88,10.88,0,0,1,10.073-.011l.616.319a6.4,6.4,0,0,0,2.753.71l6.059.167a5.346,5.346,0,0,1,4.558,2.81l6.563-3.1a4.232,4.232,0,0,1,5.588,1.7.838.838,0,0,1-.273,1.116l-14.944,9.661a.832.832,0,0,1-.1.057,11.182,11.182,0,0,1-4.664,1.019Zm-12.173-4.751,10.279,2.884a9.5,9.5,0,0,0,5.809-.648l14.128-9.135a2.56,2.56,0,0,0-2.894-.405l-.02.01-6.73,3.179a5.368,5.368,0,0,1,.081,1.087.839.839,0,0,1-.837.814h-.024l-9.958-.274a.836.836,0,0,1-.814-.86.836.836,0,0,1,.86-.814l9.024.247a3.674,3.674,0,0,0-3.493-2.926l-6.059-.167a8.085,8.085,0,0,1-3.479-.9l-.617-.32a9.212,9.212,0,0,0-9.355.5l-.236,8.576.882-.472a4.635,4.635,0,0,1,2.195-.552A4.632,4.632,0,0,1-2642.272-989.405Zm-11.029,2.455,4.969.137.355-12.9-4.969-.137Zm22.768-14.071a3.469,3.469,0,0,0-2.052-.534l-.031,0a5.073,5.073,0,0,1-4.767-2.66l-.007-.013a3.271,3.271,0,0,0-1.478-1.422l-.019-.009a4.852,4.852,0,0,1-2.77-4.63l0-.029a3.109,3.109,0,0,0-.541-1.925,4.775,4.775,0,0,1,0-5.4,3.1,3.1,0,0,0,.541-1.925l0-.027a4.853,4.853,0,0,1,2.771-4.631l.017-.008a3.273,3.273,0,0,0,1.479-1.424l.007-.013a5.072,5.072,0,0,1,4.766-2.66l.03,0a3.476,3.476,0,0,0,2.053-.533,5.2,5.2,0,0,1,5.518,0h0a3.473,3.473,0,0,0,2.052.533h.031a5.074,5.074,0,0,1,4.766,2.66l.01.018a3.264,3.264,0,0,0,1.476,1.417l.016.008a4.856,4.856,0,0,1,2.773,4.632l0,.029a3.108,3.108,0,0,0,.541,1.924,4.776,4.776,0,0,1,0,5.4,3.11,3.11,0,0,0-.54,1.925l0,.027a4.855,4.855,0,0,1-2.771,4.631l-.014.008a3.267,3.267,0,0,0-1.483,1.424l0,.01a5.074,5.074,0,0,1-4.768,2.663l-.031,0a3.468,3.468,0,0,0-2.052.534,5.2,5.2,0,0,1-2.759.792A5.2,5.2,0,0,1-2630.533-1001.021Zm.893-1.418a3.517,3.517,0,0,0,3.732,0,5.139,5.139,0,0,1,3.036-.788h.029a3.394,3.394,0,0,0,3.2-1.766l.006-.013a4.937,4.937,0,0,1,2.236-2.154l.012-.005a3.186,3.186,0,0,0,1.832-3.029l0-.029a4.793,4.793,0,0,1,.833-2.971,3.09,3.09,0,0,0,0-3.5,4.783,4.783,0,0,1-.834-2.97l0-.03a3.186,3.186,0,0,0-1.831-3.029l-.014-.007a4.932,4.932,0,0,1-2.231-2.146l-.011-.022a3.392,3.392,0,0,0-3.194-1.763l-.03,0a5.141,5.141,0,0,1-3.034-.789,3.522,3.522,0,0,0-3.733,0,5.137,5.137,0,0,1-3.035.789l-.03,0a3.4,3.4,0,0,0-3.2,1.767l-.009.015a4.926,4.926,0,0,1-2.233,2.15l-.014.007a3.183,3.183,0,0,0-1.829,3.028l0,.029a4.8,4.8,0,0,1-.834,2.97h0a3.093,3.093,0,0,0,0,3.5,4.784,4.784,0,0,1,.835,2.969l0,.031a3.184,3.184,0,0,0,1.831,3.029l.015.008a4.922,4.922,0,0,1,2.23,2.146l.008.015a3.393,3.393,0,0,0,3.2,1.768h.03q.142-.008.283-.008A5.134,5.134,0,0,1-2629.64-1002.438Zm-3.545-3.847a.838.838,0,0,1-.266-1.154l9.92-15.892a.838.838,0,0,1,.741-.4.835.835,0,0,1,.715.446.837.837,0,0,1-.034.841l-9.921,15.892a.836.836,0,0,1-.71.394A.834.834,0,0,1-2633.185-1006.285Zm6.222-4.337a3.988,3.988,0,0,1,3.7-4.217,3.988,3.988,0,0,1,3.7,4.217,3.988,3.988,0,0,1-3.7,4.216A3.988,3.988,0,0,1-2626.963-1010.622Zm1.675,0a2.33,2.33,0,0,0,2.023,2.542,2.33,2.33,0,0,0,2.024-2.542,2.33,2.33,0,0,0-2.024-2.543A2.331,2.331,0,0,0-2625.288-1010.622Zm-10.708-8.5a3.988,3.988,0,0,1,3.7-4.216,3.988,3.988,0,0,1,3.7,4.216,3.988,3.988,0,0,1-3.7,4.217A3.988,3.988,0,0,1-2636-1019.118Zm1.675,0a2.331,2.331,0,0,0,2.023,2.543,2.331,2.331,0,0,0,2.024-2.543,2.33,2.33,0,0,0-2.024-2.542A2.33,2.33,0,0,0-2634.322-1019.118Z" transform="translate(2655 1030)" stroke="#fff" stroke-width="0.2" fill="url(#linear-gradient)"/>
  </g>
</svg>
