<svg width="12" height="12" viewBox="0 0 12 12" fill="none" xmlns="http://www.w3.org/2000/svg">
<path d="M11.25 5.70835C11.252 6.47827 11.0721 7.23778 10.725 7.92502C10.3134 8.74853 9.68069 9.4412 8.89768 9.92543C8.11467 10.4097 7.21231 10.6663 6.29167 10.6667C5.52174 10.6687 4.76223 10.4888 4.075 10.1417L0.75 11.25L1.85833 7.92502C1.51121 7.23778 1.33133 6.47827 1.33333 5.70835C1.33369 4.78771 1.59036 3.88535 2.07459 3.10234C2.55882 2.31933 3.25148 1.6866 4.075 1.27502C4.76223 0.927893 5.52174 0.748009 6.29167 0.750017H6.58333C7.7992 0.817095 8.94761 1.33029 9.80866 2.19135C10.6697 3.05241 11.1829 4.20081 11.25 5.41668V5.70835Z" stroke="#555555" stroke-linecap="round" stroke-linejoin="round"/>
</svg>
