<svg width="121" height="101" viewBox="0 0 121 101" fill="none" xmlns="http://www.w3.org/2000/svg">
<g filter="url(#filter0_d)">
<path d="M100.124 15.3295L100.024 14.6562L99.9198 14.6802C99.2077 11.3499 97.5672 8.28931 95.1881 5.85254C92.809 3.41576 89.7885 1.70241 86.4762 0.910715C83.164 0.119022 79.6952 0.28135 76.4713 1.37892C73.2475 2.47648 70.4002 4.46443 68.2591 7.11274C66.118 9.76105 64.7704 12.9615 64.3724 16.3437C63.9744 19.726 64.5422 23.1518 66.01 26.2248C67.4779 29.2978 69.7858 31.8924 72.6668 33.7084C75.5479 35.5244 78.8842 36.4875 82.2898 36.4864C83.1835 36.4864 84.0411 36.3501 84.8948 36.2259C84.6183 37.1557 84.3337 38.1015 83.8768 38.9511C83.4199 40.1855 82.7066 41.2556 81.9972 42.3337C81.404 43.4999 80.358 44.2894 79.5885 45.2874C78.783 46.2572 77.6849 46.9025 76.8152 47.708C75.9615 48.5497 74.8434 48.9705 73.9536 49.5636C73.0238 50.0967 72.2143 50.6858 71.3486 50.9664L69.1884 51.8561L67.2887 52.6456L69.2285 60.4166L71.6211 59.8395C72.3866 59.6471 73.3204 59.4227 74.3825 59.1542C75.4686 58.9538 76.6268 58.4047 77.9173 57.9038C79.1878 57.3307 80.6666 56.9499 82.0373 56.0322C83.4159 55.1585 85.007 54.429 86.4097 53.2588C87.7683 52.0525 89.4075 51.0064 90.6179 49.4755C91.9404 48.0407 93.2469 46.5338 94.2609 44.8185C95.4352 43.1833 96.2327 41.3878 97.0743 39.6124C97.8358 37.837 98.449 36.0215 98.95 34.2581C99.8998 30.7232 100.325 27.3647 100.489 24.4912C100.625 21.6136 100.545 19.221 100.377 17.4896C100.32 16.7666 100.236 16.046 100.124 15.3295ZM56.039 15.3295L55.9388 14.6562L55.8346 14.6802C55.1225 11.3499 53.4819 8.28931 51.1028 5.85254C48.7237 3.41576 45.7033 1.70241 42.391 0.910715C39.0787 0.119022 35.61 0.28135 32.3861 1.37892C29.1622 2.47648 26.315 4.46443 24.1739 7.11274C22.0327 9.76105 20.6852 12.9615 20.2872 16.3437C19.8892 19.726 20.4569 23.1518 21.9248 26.2248C23.3926 29.2978 25.7006 31.8924 28.5816 33.7084C31.4626 35.5244 34.7989 36.4875 38.2045 36.4864C39.0982 36.4864 39.9559 36.3501 40.8096 36.2259C40.533 37.1557 40.2485 38.1015 39.7916 38.9511C39.3347 40.1855 38.6213 41.2556 37.912 42.3337C37.3188 43.4999 36.2728 44.2894 35.5033 45.2874C34.6977 46.2572 33.5996 46.9025 32.7299 47.708C31.8763 48.5497 30.7581 48.9705 29.8684 49.5636C28.9386 50.0967 28.129 50.6858 27.2634 50.9664L25.1032 51.8561C23.8969 52.349 23.2075 52.6376 23.2075 52.6376L25.1473 60.4086L27.5399 59.8315C28.3054 59.6391 29.2392 59.4147 30.3012 59.1462C31.3873 58.9458 32.5456 58.3967 33.8361 57.8957C35.1065 57.3226 36.5854 56.9419 37.956 56.0241C39.3347 55.1504 40.9258 54.421 42.3285 53.2508C43.6871 52.0444 45.3263 50.9984 46.5366 49.4675C47.8592 48.0327 49.1657 46.5258 50.1797 44.8105C51.3539 43.1753 52.1515 41.3798 52.9931 39.6044C53.7546 37.829 54.3678 36.0134 54.8687 34.25C55.8186 30.7152 56.2434 27.3567 56.4077 24.4832C56.544 21.6056 56.4638 19.213 56.2955 17.4816C56.2357 16.7614 56.1501 16.0436 56.039 15.3295Z" fill="url(#paint0_linear)"/>
</g>
<defs>
<filter id="filter0_d" x="0.163574" y="0.416626" width="120.394" height="100" filterUnits="userSpaceOnUse" color-interpolation-filters="sRGB">
<feFlood flood-opacity="0" result="BackgroundImageFix"/>
<feColorMatrix in="SourceAlpha" type="matrix" values="0 0 0 0 0 0 0 0 0 0 0 0 0 0 0 0 0 0 127 0" result="hardAlpha"/>
<feOffset dy="20"/>
<feGaussianBlur stdDeviation="10"/>
<feColorMatrix type="matrix" values="0 0 0 0 0.85 0 0 0 0 0.240833 0 0 0 0 0.350483 0 0 0 0.2 0"/>
<feBlend mode="normal" in2="BackgroundImageFix" result="effect1_dropShadow"/>
<feBlend mode="normal" in="SourceGraphic" in2="effect1_dropShadow" result="shape"/>
</filter>
<linearGradient id="paint0_linear" x1="20.1636" y1="0.416626" x2="103.411" y2="4.67722" gradientUnits="userSpaceOnUse">
<stop stop-color="#D93D59"/>
<stop offset="1" stop-color="#E87373"/>
</linearGradient>
</defs>
</svg>
