<?xml version="1.0" encoding="UTF-8"?>
<svg width="83px" height="25px" viewBox="0 0 83 25" version="1.1" xmlns="http://www.w3.org/2000/svg" xmlns:xlink="http://www.w3.org/1999/xlink">
    <!-- Generator: Sketch 52.4 (67378) - http://www.bohemiancoding.com/sketch -->
    <title>Group 8 Copy 3</title>
    <desc>Created with Sketch.</desc>
    <defs>
        <linearGradient x1="2.78571429%" y1="4.76317081%" x2="98.1328125%" y2="96.1647727%" id="linearGradient-1">
            <stop stop-color="#3F1F8D" offset="0%"></stop>
            <stop stop-color="#673AB7" offset="100%"></stop>
        </linearGradient>
    </defs>
    <g id="Design" stroke="none" stroke-width="1" fill="none" fill-rule="evenodd">
        <g id="Home" transform="translate(-188.000000, -54.000000)">
            <g id="Group-8-Copy-3" transform="translate(188.000000, 54.000000)">
                <path d="M50.792,13.016 C50.9946677,13.016 51.1573327,13.0746661 51.28,13.192 C51.4026673,13.3093339 51.464,13.4693323 51.464,13.672 L51.464,17.416 C51.464,17.7786685 51.4133338,18.0399992 51.312,18.2 C51.2106662,18.3600008 51.0106682,18.4879995 50.712,18.584 C50.2853312,18.7546675 49.7786696,18.8879995 49.192,18.984 C48.6053304,19.0800005 48.0240029,19.128 47.448,19.128 C46.306661,19.128 45.3200042,18.898669 44.488,18.44 C43.6559958,17.981331 43.0213355,17.3200043 42.584,16.456 C42.1466645,15.5919957 41.928,14.5573394 41.928,13.352 C41.928,12.1679941 42.1466645,11.1440043 42.584,10.28 C43.0213355,9.41599568 43.6479959,8.75200232 44.464,8.288 C45.2800041,7.82399768 46.2373278,7.592 47.336,7.592 C48.0826704,7.592 48.7733302,7.70133224 49.408,7.92 C50.0426698,8.13866776 50.5839978,8.45599792 51.032,8.872 C51.2453344,9.04266752 51.352,9.25599872 51.352,9.512 C51.352,9.70400096 51.2986672,9.866666 51.192,10 C51.0853328,10.133334 50.9573341,10.2 50.808,10.2 C50.7119995,10.2 50.626667,10.1840002 50.552,10.152 C50.477333,10.1199998 50.3813339,10.066667 50.264,9.992 C49.7413307,9.60799808 49.2666688,9.33866744 48.84,9.184 C48.4133312,9.02933256 47.9226694,8.952 47.368,8.952 C46.1519939,8.952 45.2240032,9.32799624 44.584,10.08 C43.9439968,10.8320038 43.624,11.9226595 43.624,13.352 C43.624,14.8133406 43.9519967,15.9199962 44.608,16.672 C45.2640033,17.4240038 46.2266603,17.8 47.496,17.8 C48.3493376,17.8 49.1706627,17.6720013 49.96,17.416 L49.96,14.264 L47.864,14.264 C47.6506656,14.264 47.4826673,14.2080006 47.36,14.096 C47.2373327,13.9839994 47.176,13.832001 47.176,13.64 C47.176,13.447999 47.2373327,13.2960006 47.36,13.184 C47.4826673,13.0719994 47.6506656,13.016 47.864,13.016 L50.792,13.016 Z M58.838,11 C59.8726718,11 60.6433308,11.2613307 61.15,11.784 C61.6566692,12.3066693 61.91,13.101328 61.91,14.168 L61.91,18.312 C61.91,18.5573346 61.8406673,18.746666 61.702,18.88 C61.5633326,19.013334 61.3713345,19.08 61.126,19.08 C60.8913321,19.08 60.7046673,19.0106674 60.566,18.872 C60.4273326,18.7333326 60.358,18.5466678 60.358,18.312 L60.358,17.72 C60.1553323,18.1680022 59.854002,18.5119988 59.454,18.752 C59.053998,18.9920012 58.587336,19.112 58.054,19.112 C57.5419974,19.112 57.0726688,19.008001 56.646,18.8 C56.2193312,18.591999 55.8860012,18.3013352 55.646,17.928 C55.4059988,17.5546648 55.286,17.138669 55.286,16.68 C55.286,16.1146638 55.4326652,15.669335 55.726,15.344 C56.0193348,15.018665 56.5046632,14.7866674 57.182,14.648 C57.8593367,14.5093326 58.789994,14.44 59.974,14.44 L60.342,14.44 L60.342,13.976 C60.342,13.3786637 60.2193345,12.946668 59.974,12.68 C59.7286654,12.413332 59.3340027,12.28 58.79,12.28 C58.4166648,12.28 58.0646683,12.3279995 57.734,12.424 C57.4033316,12.5200005 57.0406686,12.6586658 56.646,12.84 C56.3579985,13.0000008 56.1553339,13.08 56.038,13.08 C55.8779992,13.08 55.7473338,13.0213339 55.646,12.904 C55.5446661,12.7866661 55.494,12.6373342 55.494,12.456 C55.494,12.2959992 55.5393328,12.1546673 55.63,12.032 C55.7206671,11.9093327 55.8673323,11.7893339 56.07,11.672 C56.4433352,11.4693323 56.8806641,11.3066673 57.382,11.184 C57.8833358,11.0613327 58.3686643,11 58.838,11 Z M58.342,17.912 C58.9286696,17.912 59.4086648,17.712002 59.782,17.312 C60.1553352,16.911998 60.342,16.3973365 60.342,15.768 L60.342,15.352 L60.054,15.352 C59.2219958,15.352 58.5820022,15.389333 58.134,15.464 C57.6859977,15.538667 57.3660009,15.6639991 57.174,15.84 C56.981999,16.0160009 56.886,16.2693317 56.886,16.6 C56.886,16.9840019 57.0246652,17.2986654 57.302,17.544 C57.5793347,17.7893346 57.9259979,17.912 58.342,17.912 Z M71.9559999,11.032 C72.2013345,11.032 72.3959992,11.1013326 72.5399999,11.24 C72.6840006,11.3786674 72.7559999,11.5706654 72.7559999,11.816 L72.7559999,18.328 C72.7559999,18.5520011 72.681334,18.7333326 72.5319999,18.872 C72.3826658,19.0106674 72.1853345,19.08 71.9399999,19.08 C71.7159988,19.08 71.5346673,19.013334 71.3959999,18.88 C71.2573326,18.746666 71.1879999,18.5680011 71.1879999,18.344 L71.1879999,17.736 C70.9426654,18.1840022 70.6040021,18.5253322 70.1719999,18.76 C69.7399978,18.9946678 69.2573359,19.112 68.7239999,19.112 C66.8253238,19.112 65.8759999,18.0666771 65.8759999,15.976 L65.8759999,11.816 C65.8759999,11.5706654 65.9479992,11.3786674 66.0919999,11.24 C66.2360006,11.1013326 66.4359986,11.032 66.6919999,11.032 C66.9373345,11.032 67.1319992,11.1013326 67.2759999,11.24 C67.4200006,11.3786674 67.4919999,11.5706654 67.4919999,11.816 L67.4919999,15.96 C67.4919999,16.5893365 67.6199986,17.0533318 67.8759999,17.352 C68.1320012,17.6506682 68.5266639,17.8 69.0599999,17.8 C69.6893364,17.8 70.1933314,17.5973354 70.5719999,17.192 C70.9506685,16.7866646 71.1399999,16.2480034 71.1399999,15.576 L71.1399999,11.816 C71.1399999,11.5813322 71.2146658,11.3920007 71.3639999,11.248 C71.513334,11.1039993 71.7106654,11.032 71.9559999,11.032 Z M79.5219999,19.112 C78.4339944,19.112 77.5433367,18.8880022 76.8499999,18.44 C76.6579989,18.3226661 76.5220003,18.2000006 76.4419999,18.072 C76.3619995,17.9439994 76.3219999,17.8000008 76.3219999,17.64 C76.3219999,17.4693325 76.3699994,17.3253339 76.4659999,17.208 C76.5620004,17.0906661 76.6846658,17.032 76.8339999,17.032 C76.9726672,17.032 77.1913317,17.1173325 77.4899999,17.288 C77.8100015,17.4586675 78.1219984,17.5973328 78.4259999,17.704 C78.7300014,17.8106672 79.1113309,17.864 79.5699999,17.864 C80.0820024,17.864 80.4819984,17.7733342 80.7699999,17.592 C81.0580013,17.4106658 81.2019999,17.1546683 81.2019999,16.824 C81.2019999,16.6106656 81.1460004,16.4400006 81.0339999,16.312 C80.9219993,16.1839994 80.7273346,16.0693338 80.4499999,15.968 C80.1726652,15.8666662 79.7620026,15.7573339 79.2179999,15.64 C78.2793285,15.4373323 77.6046686,15.1626684 77.1939999,14.816 C76.7833312,14.4693316 76.5779999,13.9973363 76.5779999,13.4 C76.5779999,12.941331 76.7113319,12.5280018 76.9779999,12.16 C77.2446679,11.7919982 77.6126642,11.5066677 78.0819999,11.304 C78.5513356,11.1013323 79.0846636,11 79.6819999,11 C80.1086687,11 80.5246645,11.0559994 80.9299999,11.168 C81.3353352,11.2800006 81.692665,11.4426656 82.0019999,11.656 C82.3540016,11.8906678 82.5299999,12.1626651 82.5299999,12.472 C82.5299999,12.6426675 82.4793337,12.7866661 82.3779999,12.904 C82.276666,13.0213339 82.1566672,13.08 82.0179999,13.08 C81.9219994,13.08 81.8260004,13.0586669 81.7299999,13.016 C81.6339994,12.9733331 81.5060007,12.9040005 81.3459999,12.808 C81.0579984,12.6373325 80.7886678,12.5040005 80.5379999,12.408 C80.287332,12.3119995 79.9753351,12.264 79.6019999,12.264 C79.1539976,12.264 78.7940012,12.359999 78.5219999,12.552 C78.2499985,12.744001 78.1139999,13.0053317 78.1139999,13.336 C78.1139999,13.6346682 78.239332,13.8666658 78.4899999,14.032 C78.7406678,14.1973342 79.2126631,14.3546659 79.9059999,14.504 C80.6206701,14.6533341 81.1806645,14.823999 81.5859999,15.016 C81.9913352,15.208001 82.281999,15.4453319 82.4579999,15.728 C82.6340008,16.0106681 82.7219999,16.3706645 82.7219999,16.808 C82.7219999,17.5013368 82.4313361,18.0586646 81.8499999,18.48 C81.2686636,18.9013354 80.4926714,19.112 79.5219999,19.112 Z" id="Gaus" fill="#1E3056"></path>
                <g id="Group-7" fill-rule="nonzero">
                    <rect id="Rectangle" fill="url(#linearGradient-1)" opacity="0.38" x="0" y="0" width="20" height="20" rx="4"></rect>
                    <rect id="Rectangle" fill="#532CA2" x="5" y="5" width="20" height="20" rx="4"></rect>
                </g>
            </g>
        </g>
    </g>
</svg>