<?xml version="1.0" encoding="UTF-8"?>
<svg width="160px" height="49px" viewBox="0 0 160 49" version="1.1" xmlns="http://www.w3.org/2000/svg" xmlns:xlink="http://www.w3.org/1999/xlink">
    <!-- Generator: Sketch 52.4 (67378) - http://www.bohemiancoding.com/sketch -->
    <title>Group 6</title>
    <desc>Created with Sketch.</desc>
    <g id="Design" stroke="none" stroke-width="1" fill="none" fill-rule="evenodd">
        <g id="Our-Work-Single" transform="translate(-841.000000, -446.000000)">
            <g id="Group-6" transform="translate(841.000000, 446.000000)">
                <rect id="button" stroke="#3B566E" x="0.5" y="0.5" width="159" height="47.0751174" rx="10"></rect>
                <path d="M55.0410798,16.341696 C55.4115335,16.341696 55.7159612,16.3031841 55.9543721,16.226159 C56.3798437,16.0831125 56.728285,15.8080273 56.9997066,15.400895 C57.2161102,15.0744555 57.3719919,14.6563259 57.4673562,14.1464935 C57.5223741,13.8420613 57.5498826,13.5596404 57.5498826,13.2992224 C57.5498826,12.297897 57.3509043,11.5203226 56.9529416,10.9664759 C56.5549789,10.4126293 55.9140302,10.1357101 55.0300763,10.1357101 L53.0879548,10.1357101 L53.0879548,16.341696 L55.0410798,16.341696 Z M51.9876027,9.19490904 L55.2611502,9.19490904 C56.3725114,9.19490904 57.2344453,9.58919794 57.8469777,10.3777876 C58.3934886,11.0893521 58.66674,12.0008014 58.66674,13.1121626 C58.66674,13.9704415 58.5053567,14.746182 58.1825851,15.4394073 C57.614067,16.6644721 56.6365973,17.2769953 55.2501467,17.2769953 L51.9876027,17.2769953 L51.9876027,9.19490904 Z M63.1828052,16.6387911 C63.8393519,16.6387911 64.2895748,16.3902974 64.5334874,15.8933025 C64.7774,15.3963077 64.8993545,14.8433863 64.8993545,14.2345217 C64.8993545,13.6843429 64.8113272,13.2368709 64.63527,12.8920921 C64.3565127,12.349249 63.8760304,12.0778316 63.1938087,12.0778316 C62.588612,12.0778316 62.1484756,12.3089032 61.8733862,12.7710534 C61.5982968,13.2332036 61.4607541,13.7907098 61.4607541,14.4435886 C61.4607541,15.0707925 61.5982968,15.5934545 61.8733862,16.0115904 C62.1484756,16.4297263 62.5849442,16.6387911 63.1828052,16.6387911 Z M63.2213175,11.2140552 C63.9805643,11.2140552 64.6224299,11.4671336 65.1469337,11.9732981 C65.6714375,12.4794626 65.9336855,13.2240268 65.9336855,14.2070129 C65.9336855,15.1569883 65.7026138,15.9418983 65.2404637,16.5617664 C64.7783135,17.1816346 64.0612578,17.491564 63.0892753,17.491564 C62.2786785,17.491564 61.6349789,17.2173956 61.1581573,16.6690508 C60.6813357,16.1207059 60.4429284,15.3843943 60.4429284,14.4600939 C60.4429284,13.469772 60.694173,12.6811942 61.1966696,12.0943369 C61.6991663,11.5074795 62.3740422,11.2140552 63.2213175,11.2140552 Z M68.4691169,11.3846097 L69.6024795,16.0280957 L70.7523475,11.3846097 L71.8637031,11.3846097 L73.0190728,16.0005869 L74.2239584,11.3846097 L75.2142753,11.3846097 L73.5032278,17.2769953 L72.4743985,17.2769953 L71.2750147,12.7160358 L70.1141433,17.2769953 L69.085314,17.2769953 L67.38527,11.3846097 L68.4691169,11.3846097 Z M77.0509831,11.3846097 L77.9917841,11.3846097 L77.9917841,12.2208773 C78.2705414,11.8760986 78.5657996,11.6285219 78.8775676,11.4781397 C79.1893356,11.3277575 79.535943,11.2525675 79.9174003,11.2525675 C80.7536721,11.2525675 81.3185139,11.5441579 81.6119426,12.1273474 C81.7733284,12.4464511 81.8540201,12.9030927 81.8540201,13.4972858 L81.8540201,17.2769953 L80.8471979,17.2769953 L80.8471979,13.5633069 C80.8471979,13.2038568 80.7940147,12.9141003 80.6876468,12.6940288 C80.5115896,12.3272429 80.1924907,12.1438527 79.7303405,12.1438527 C79.4955975,12.1438527 79.3030378,12.1676934 79.1526556,12.2153756 C78.8812341,12.2960685 78.6428268,12.4574518 78.4374268,12.6995305 C78.2723731,12.893927 78.1650899,13.0947393 78.1155738,13.3019733 C78.0660577,13.5092073 78.0413,13.8053825 78.0413,14.1905076 L78.0413,17.2769953 L77.0509831,17.2769953 L77.0509831,11.3846097 Z M84.2464057,9.19490904 L85.2367226,9.19490904 L85.2367226,17.2769953 L84.2464057,17.2769953 L84.2464057,9.19490904 Z M89.9618546,16.6387911 C90.6184013,16.6387911 91.0686243,16.3902974 91.3125369,15.8933025 C91.5564495,15.3963077 91.6784039,14.8433863 91.6784039,14.2345217 C91.6784039,13.6843429 91.5903766,13.2368709 91.4143194,12.8920921 C91.1355622,12.349249 90.6550799,12.0778316 89.9728582,12.0778316 C89.3676615,12.0778316 88.927525,12.3089032 88.6524356,12.7710534 C88.3773462,13.2332036 88.2398036,13.7907098 88.2398036,14.4435886 C88.2398036,15.0707925 88.3773462,15.5934545 88.6524356,16.0115904 C88.927525,16.4297263 89.3639937,16.6387911 89.9618546,16.6387911 Z M90.000367,11.2140552 C90.7596137,11.2140552 91.4014794,11.4671336 91.9259832,11.9732981 C92.450487,12.4794626 92.7127349,13.2240268 92.7127349,14.2070129 C92.7127349,15.1569883 92.4816633,15.9418983 92.0195131,16.5617664 C91.5573629,17.1816346 90.8403073,17.491564 89.8683247,17.491564 C89.0577279,17.491564 88.4140284,17.2173956 87.9372068,16.6690508 C87.4603851,16.1207059 87.2219779,15.3843943 87.2219779,14.4600939 C87.2219779,13.469772 87.4732224,12.6811942 87.9757191,12.0943369 C88.4782157,11.5074795 89.1530916,11.2140552 90.000367,11.2140552 Z M95.5507631,15.7089935 C95.5507631,15.9950865 95.6552955,16.2206565 95.8643635,16.3857101 C96.0734314,16.5507637 96.3210082,16.6332893 96.6071012,16.6332893 C96.9555477,16.6332893 97.2929857,16.5525976 97.6194251,16.3912119 C98.1696039,16.1234582 98.4446892,15.6851556 98.4446892,15.0762911 L98.4446892,14.2785358 C98.3236498,14.3555608 98.1677682,14.4197474 97.9770395,14.4710974 C97.7863109,14.5224474 97.5992529,14.5591255 97.41586,14.5811326 L96.8161681,14.6581573 C96.4567179,14.7058394 96.1871343,14.7810294 96.0074093,14.8837295 C95.702977,15.0561188 95.5507631,15.3312041 95.5507631,15.7089935 Z M97.9495307,13.7063527 C98.176938,13.6770098 98.3291518,13.5816469 98.4061769,13.4202612 C98.4501912,13.3322325 98.472198,13.2056933 98.472198,13.0406397 C98.472198,12.7031967 98.3520774,12.4583708 98.1118327,12.3061546 C97.8715879,12.1539385 97.5277313,12.0778316 97.0802526,12.0778316 C96.5630845,12.0778316 96.1963041,12.2172081 95.9799004,12.4959654 C95.8588611,12.6500154 95.7800033,12.8792532 95.7433247,13.1836854 L94.819029,13.1836854 C94.8373683,12.4574494 95.0730247,11.9522095 95.5260052,11.6679504 C95.9789858,11.3836914 96.5043986,11.241564 97.1022596,11.241564 C97.7954849,11.241564 98.3584928,11.3736049 98.7913001,11.6376907 C99.2204396,11.9017766 99.4350061,12.3125706 99.4350061,12.8700851 L99.4350061,16.2646714 C99.4350061,16.3673714 99.456096,16.449897 99.4982763,16.5122506 C99.5404567,16.5746042 99.6294009,16.6057805 99.7651117,16.6057805 C99.809126,16.6057805 99.8586414,16.6030297 99.9136593,16.5975279 C99.9686771,16.5920261 100.027362,16.5837735 100.089716,16.57277 L100.089716,17.3045041 C99.9356655,17.3485184 99.8182958,17.3760269 99.7376029,17.3870305 C99.65691,17.3980341 99.5468759,17.4035358 99.4074973,17.4035358 C99.0663864,17.4035358 98.8188097,17.2824983 98.6647596,17.0404196 C98.5840667,16.9120445 98.5272158,16.7304883 98.494205,16.4957453 C98.2924728,16.7598311 98.0027163,16.9890689 97.6249269,17.1834654 C97.2471374,17.3778619 96.8308417,17.4750587 96.3760272,17.4750587 C95.8295163,17.4750587 95.3829612,17.3090906 95.0363485,16.9771494 C94.6897359,16.6452081 94.5164321,16.2298294 94.5164321,15.7310006 C94.5164321,15.1844896 94.686985,14.7608583 95.0280959,14.4600939 C95.3692067,14.1593295 95.8166788,13.9741054 96.3705254,13.9044161 L97.9495307,13.7063527 Z M102.586635,14.3995745 C102.586635,15.0304462 102.720509,15.55861 102.988263,15.9840816 C103.256017,16.4095532 103.68515,16.6222858 104.275675,16.6222858 C104.734157,16.6222858 105.111024,16.4251413 105.406287,16.0308465 C105.70155,15.6365517 105.849179,15.070793 105.849179,14.3335534 C105.849179,13.5889781 105.696965,13.0378906 105.392533,12.6802744 C105.0881,12.3226581 104.71215,12.1438527 104.264672,12.1438527 C103.765843,12.1438527 103.361467,12.3345785 103.051533,12.7160358 C102.741599,13.0974931 102.586635,13.6586671 102.586635,14.3995745 Z M104.077612,11.2800763 C104.528758,11.2800763 104.906542,11.3754392 105.210974,11.5661678 C105.387032,11.6762036 105.586927,11.8687633 105.810666,12.1438527 L105.810666,9.16740023 L106.762471,9.16740023 L106.762471,17.2769953 L105.871186,17.2769953 L105.871186,16.457233 C105.640111,16.820351 105.366859,17.082599 105.051423,17.2439847 C104.735988,17.4053705 104.374709,17.4860622 103.967577,17.4860622 C103.31103,17.4860622 102.74252,17.21006 102.262031,16.6580472 C101.781541,16.1060345 101.5413,15.3715568 101.5413,14.4545921 C101.5413,13.5963132 101.760451,12.852666 102.198761,12.2236282 C102.63707,11.5945905 103.263347,11.2800763 104.077612,11.2800763 Z M115.497506,16.6387911 C116.154053,16.6387911 116.604276,16.3902974 116.848188,15.8933025 C117.092101,15.3963077 117.214055,14.8433863 117.214055,14.2345217 C117.214055,13.6843429 117.126028,13.2368709 116.949971,12.8920921 C116.671214,12.349249 116.190731,12.0778316 115.50851,12.0778316 C114.903313,12.0778316 114.463177,12.3089032 114.188087,12.7710534 C113.912998,13.2332036 113.775455,13.7907098 113.775455,14.4435886 C113.775455,15.0707925 113.912998,15.5934545 114.188087,16.0115904 C114.463177,16.4297263 114.899645,16.6387911 115.497506,16.6387911 Z M115.536019,11.2140552 C116.295265,11.2140552 116.937131,11.4671336 117.461635,11.9732981 C117.986139,12.4794626 118.248386,13.2240268 118.248386,14.2070129 C118.248386,15.1569883 118.017315,15.9418983 117.555165,16.5617664 C117.093014,17.1816346 116.375959,17.491564 115.403976,17.491564 C114.593379,17.491564 113.94968,17.2173956 113.472858,16.6690508 C112.996037,16.1207059 112.757629,15.3843943 112.757629,14.4600939 C112.757629,13.469772 113.008874,12.6811942 113.511371,12.0943369 C114.013867,11.5074795 114.688743,11.2140552 115.536019,11.2140552 Z M120.327172,11.3846097 L121.267973,11.3846097 L121.267973,12.2208773 C121.54673,11.8760986 121.841988,11.6285219 122.153756,11.4781397 C122.465524,11.3277575 122.812132,11.2525675 123.193589,11.2525675 C124.029861,11.2525675 124.594703,11.5441579 124.888131,12.1273474 C125.049517,12.4464511 125.130209,12.9030927 125.130209,13.4972858 L125.130209,17.2769953 L124.123387,17.2769953 L124.123387,13.5633069 C124.123387,13.2038568 124.070203,12.9141003 123.963835,12.6940288 C123.787778,12.3272429 123.468679,12.1438527 123.006529,12.1438527 C122.771786,12.1438527 122.579226,12.1676934 122.428844,12.2153756 C122.157423,12.2960685 121.919015,12.4574518 121.713615,12.6995305 C121.548562,12.893927 121.441278,13.0947393 121.391762,13.3019733 C121.342246,13.5092073 121.317489,13.8053825 121.317489,14.1905076 L121.317489,17.2769953 L120.327172,17.2769953 L120.327172,11.3846097 Z M131.725059,9.73958333 L132.72638,9.73958333 L132.72638,11.3846097 L133.667181,11.3846097 L133.667181,12.1933685 L132.72638,12.1933685 L132.72638,16.0390992 C132.72638,16.2444993 132.796068,16.3820419 132.935446,16.4517312 C133.012471,16.4920777 133.140845,16.5122506 133.32057,16.5122506 C133.368252,16.5122506 133.419601,16.5113336 133.474619,16.5094997 C133.529637,16.5076658 133.593823,16.503081 133.667181,16.4957453 L133.667181,17.2769953 C133.553477,17.310006 133.43519,17.3338468 133.312317,17.3485182 C133.189444,17.3631896 133.056486,17.3705252 132.913439,17.3705252 C132.451289,17.3705252 132.137692,17.2522386 131.972638,17.0156617 C131.807585,16.7790848 131.725059,16.4719062 131.725059,16.0941168 L131.725059,12.1933685 L130.927304,12.1933685 L130.927304,11.3846097 L131.725059,11.3846097 L131.725059,9.73958333 Z M135.558906,9.16740023 L136.549223,9.16740023 L136.549223,12.182365 C136.783966,11.8852685 136.994865,11.6762037 137.181925,11.5551643 C137.501029,11.3460964 137.898986,11.241564 138.375807,11.241564 C139.230418,11.241564 139.809931,11.54049 140.114364,12.1383509 C140.279417,12.4647904 140.361943,12.9177641 140.361943,13.4972858 L140.361943,17.2769953 L139.344117,17.2769953 L139.344117,13.5633069 C139.344117,13.1304996 139.2891,12.8132346 139.179064,12.6115023 C138.999339,12.2887308 138.661901,12.1273474 138.16674,12.1273474 C137.75594,12.1273474 137.383658,12.2685579 137.049883,12.550983 C136.716108,12.8334081 136.549223,13.3670735 136.549223,14.1519953 L136.549223,17.2769953 L135.558906,17.2769953 L135.558906,9.16740023 Z M145.180605,11.2525675 C145.598741,11.2525675 146.004033,11.3506812 146.396494,11.5469117 C146.788955,11.7431421 147.087881,11.9971375 147.293281,12.3089055 C147.491345,12.6060021 147.623386,12.9526095 147.689408,13.3487383 C147.748094,13.6201598 147.777436,14.0529606 147.777436,14.6471538 L143.458554,14.6471538 C143.476893,15.2450147 143.618104,15.7245801 143.882189,16.0858641 C144.146275,16.4471482 144.555235,16.6277876 145.109082,16.6277876 C145.62625,16.6277876 146.038878,16.4572347 146.346978,16.1161238 C146.523035,15.9180595 146.647741,15.6888217 146.721098,15.4284038 L147.69491,15.4284038 C147.669235,15.6448074 147.583958,15.8859655 147.439078,16.1518853 C147.294197,16.417805 147.131897,16.6351224 146.952172,16.8038439 C146.651407,17.0972726 146.279125,17.295334 145.835314,17.398034 C145.596904,17.4567198 145.32732,17.4860622 145.026556,17.4860622 C144.292984,17.4860622 143.671291,17.2192295 143.161459,16.685556 C142.651626,16.1518826 142.396714,15.4045676 142.396714,14.4435886 C142.396714,13.4972811 142.65346,12.7288762 143.166961,12.1383509 C143.680461,11.5478257 144.351669,11.2525675 145.180605,11.2525675 Z M146.75961,13.860402 C146.719264,13.4312625 146.625735,13.0883229 146.47902,12.8315728 C146.207599,12.3547511 145.754625,12.1163439 145.120086,12.1163439 C144.665271,12.1163439 144.28382,12.2804781 143.975719,12.6087515 C143.667619,12.9370248 143.504402,13.3542375 143.486063,13.860402 L146.75961,13.860402 Z" id="Download-on-the" fill="#3B566E"></path>
                <path d="M60.759243,31.9065434 L58.3872506,25.0033011 L55.8663439,31.9065434 L60.759243,31.9065434 Z M57.2810299,22.6844924 L59.6742958,22.6844924 L65.3436766,38.3098592 L63.024868,38.3098592 L61.4399941,33.6296948 L55.2600499,33.6296948 L53.5688087,38.3098592 L51.3989143,38.3098592 L57.2810299,22.6844924 Z M71.8214495,37.022814 C72.7149399,37.022814 73.4577313,36.6487591 74.049846,35.9006382 C74.6419606,35.1525173 74.9380135,34.0338983 74.9380135,32.5447477 C74.9380135,31.6370749 74.8068284,30.8570553 74.5444542,30.2046655 C74.0480707,28.9495242 73.1404115,28.321963 71.8214495,28.321963 C70.4953963,28.321963 69.5877372,28.9849797 69.0984448,30.3110329 C68.8360707,31.0201522 68.7048856,31.9207203 68.7048856,33.0127641 C68.7048856,33.8920721 68.8360707,34.6401818 69.0984448,35.2571156 C69.5948284,36.4342537 70.5024875,37.022814 71.8214495,37.022814 Z M66.86473,26.9710974 L68.726159,26.9710974 L68.726159,28.4815141 C69.1090835,27.963857 69.5274576,27.5632105 69.981294,27.2795628 C70.6265926,26.8540912 71.3853389,26.6413586 72.2575558,26.6413586 C73.548153,26.6413586 74.6437259,27.1359619 75.5443075,28.1251834 C76.4448891,29.1144049 76.8951731,30.527304 76.8951731,32.3639231 C76.8951731,34.8458409 76.2463386,36.6186126 74.9486502,37.6822917 C74.1260718,38.3559551 73.168775,38.6927817 72.0767312,38.6927817 C71.2186968,38.6927817 70.4989515,38.5048679 69.9174736,38.1290346 C69.5770963,37.9162988 69.1977231,37.5511078 68.7793427,37.0334507 L68.7793427,42.8517459 L66.86473,42.8517459 L66.86473,26.9710974 Z M83.9366931,37.022814 C84.8301835,37.022814 85.5729748,36.6487591 86.1650895,35.9006382 C86.7572042,35.1525173 87.053257,34.0338983 87.053257,32.5447477 C87.053257,31.6370749 86.9220719,30.8570553 86.6596978,30.2046655 C86.1633142,28.9495242 85.2556551,28.321963 83.9366931,28.321963 C82.6106399,28.321963 81.7029807,28.9849797 81.2136884,30.3110329 C80.9513142,31.0201522 80.8201291,31.9207203 80.8201291,33.0127641 C80.8201291,33.8920721 80.9513142,34.6401818 81.2136884,35.2571156 C81.7100719,36.4342537 82.6177311,37.022814 83.9366931,37.022814 Z M78.9799736,26.9710974 L80.8414026,26.9710974 L80.8414026,28.4815141 C81.224327,27.963857 81.6427012,27.5632105 82.0965376,27.2795628 C82.7418362,26.8540912 83.5005825,26.6413586 84.3727993,26.6413586 C85.6633965,26.6413586 86.7589695,27.1359619 87.6595511,28.1251834 C88.5601326,29.1144049 89.0104167,30.527304 89.0104167,32.3639231 C89.0104167,34.8458409 88.3615822,36.6186126 87.0638938,37.6822917 C86.2413153,38.3559551 85.2840186,38.6927817 84.1919748,38.6927817 C83.3339403,38.6927817 82.614195,38.5048679 82.0327171,38.1290346 C81.6923398,37.9162988 81.3129667,37.5511078 80.8945863,37.0334507 L80.8945863,42.8517459 L78.9799736,42.8517459 L78.9799736,26.9710974 Z M98.9344924,33.2680458 C98.9841307,34.154445 99.1933178,34.8741903 99.5620599,35.4273034 C100.264088,36.4626177 101.501483,36.980267 103.274281,36.980267 C104.068495,36.980267 104.791786,36.8668096 105.444175,36.6398914 C106.706408,36.2002374 107.337515,35.4131268 107.337515,34.2785358 C107.337515,33.4275926 107.071599,32.8213046 106.539759,32.4596538 C106.000829,32.1050941 105.156989,31.7966318 104.008216,31.5342576 L101.891505,31.0556045 C100.508723,30.7435919 99.5301525,30.3996742 98.9557658,30.023841 C97.9629988,29.3714512 97.4666227,28.3964267 97.4666227,27.0987383 C97.4666227,25.6946819 97.9523621,24.5423803 98.9238556,23.6417987 C99.8953491,22.7412171 101.27102,22.2909331 103.05091,22.2909331 C104.688975,22.2909331 106.080601,22.6862612 107.225829,23.4769293 C108.371057,24.2675974 108.943662,25.5315836 108.943662,27.2689261 L106.954592,27.2689261 C106.848224,26.4321652 106.621309,25.7904218 106.273841,25.3436766 C105.628542,24.5281894 104.532969,24.1204519 102.987089,24.1204519 C101.739039,24.1204519 100.842017,24.3828221 100.295995,24.9075704 C99.7499728,25.4323187 99.476966,26.0421522 99.476966,26.7370892 C99.476966,27.5029381 99.7960649,28.063134 100.434272,28.4176937 C100.852653,28.6446119 101.799313,28.9282553 103.274281,29.2686326 L105.465449,29.7685593 C106.522037,30.0096599 107.337512,30.3393954 107.911898,30.7577758 C108.904666,31.4881688 109.401042,32.5482863 109.401042,33.9381602 C109.401042,35.6684114 108.771708,36.9058061 107.513021,37.6503815 C106.254334,38.3949568 104.791797,38.7672388 103.125367,38.7672388 C101.18238,38.7672388 99.6613416,38.2708627 98.5622066,37.2780957 C97.4630716,36.2924198 96.924149,34.9557498 96.9454225,33.2680458 L98.9344924,33.2680458 Z M112.20914,23.7375293 L114.145026,23.7375293 L114.145026,26.9179137 L115.963908,26.9179137 L115.963908,28.4815141 L114.145026,28.4815141 L114.145026,35.9165933 C114.145026,36.3137001 114.279757,36.5796159 114.549222,36.7143486 C114.698137,36.7923517 114.946326,36.8313527 115.293794,36.8313527 C115.38598,36.8313527 115.485255,36.8295799 115.591623,36.8260343 C115.697991,36.8224887 115.822085,36.8136249 115.963908,36.7994425 L115.963908,38.3098592 C115.744081,38.3736799 115.515394,38.419772 115.277839,38.4481367 C115.040284,38.4765015 114.783232,38.4906837 114.506675,38.4906837 C113.613185,38.4906837 113.006897,38.2619961 112.687793,37.8046141 C112.36869,37.3472322 112.20914,36.7533536 112.20914,36.0229607 L112.20914,28.4815141 L110.666813,28.4815141 L110.666813,26.9179137 L112.20914,26.9179137 L112.20914,23.7375293 Z M122.399134,37.0759977 C123.668458,37.0759977 124.538889,36.5955765 125.010453,35.6347198 C125.482018,34.6738631 125.717796,33.6048817 125.717796,32.4277435 C125.717796,31.3640645 125.54761,30.4989519 125.207233,29.8323797 C124.668302,28.7828831 123.73937,28.2581426 122.420408,28.2581426 C121.250361,28.2581426 120.39943,28.7048811 119.867591,29.5983715 C119.335751,30.4918619 119.069836,31.5697071 119.069836,32.8319396 C119.069836,34.0445336 119.335751,35.0550136 119.867591,35.8634096 C120.39943,36.6718057 121.24327,37.0759977 122.399134,37.0759977 Z M122.473592,26.5881749 C123.941469,26.5881749 125.182409,27.0774599 126.19645,28.0560446 C127.21049,29.0346293 127.717503,30.47412 127.717503,32.3745599 C127.717503,34.211179 127.270764,35.7286716 126.377274,36.9270833 C125.483784,38.125495 124.097476,38.7246919 122.21831,38.7246919 C120.651156,38.7246919 119.40667,38.1946331 118.484815,37.1344997 C117.56296,36.0743663 117.102039,34.6508305 117.102039,32.8638498 C117.102039,30.9492275 117.587779,29.4246438 118.559272,28.2900528 C119.530766,27.1554619 120.835526,26.5881749 122.473592,26.5881749 Z M130.046948,26.9179137 L131.86583,26.9179137 L131.86583,28.8857101 C132.014745,28.5027856 132.379936,28.0365467 132.961414,27.4869792 C133.542892,26.9374117 134.213,26.662632 134.971758,26.662632 C135.007214,26.662632 135.067488,26.6661776 135.152582,26.6732688 C135.237676,26.68036 135.383044,26.6945421 135.588688,26.7158157 L135.588688,28.7367958 C135.475229,28.7155222 135.370636,28.70134 135.274905,28.6942488 C135.179174,28.6871576 135.07458,28.6836121 134.961121,28.6836121 C133.996719,28.6836121 133.2557,28.9938472 132.738043,29.6143266 C132.220386,30.234806 131.961561,30.949233 131.961561,31.7576291 L131.961561,38.3098592 L130.046948,38.3098592 L130.046948,26.9179137 Z M141.992004,26.662632 C142.8004,26.662632 143.583965,26.8523186 144.342723,27.2316975 C145.101481,27.6110763 145.679404,28.1021341 146.076511,28.7048856 C146.459436,29.2792722 146.714715,29.94938 146.842356,30.7152289 C146.955815,31.2399772 147.012544,32.0767255 147.012544,33.2254988 L138.662705,33.2254988 C138.698161,34.3813634 138.971168,35.308523 139.481734,36.0070056 C139.9923,36.7054881 140.782956,37.0547242 141.853727,37.0547242 C142.853585,37.0547242 143.651332,36.7249886 144.246992,36.0655076 C144.58737,35.6825832 144.828467,35.2393902 144.97029,34.7359155 L146.852993,34.7359155 C146.803355,35.1542959 146.638487,35.6205349 146.358385,36.1346464 C146.078283,36.648758 145.764502,37.0689049 145.417033,37.3950998 C144.835556,37.9623952 144.11581,38.345314 143.257776,38.5438674 C142.796848,38.6573265 142.275653,38.7140552 141.694175,38.7140552 C140.275937,38.7140552 139.073997,38.1981786 138.088322,37.1664099 C137.102646,36.1346413 136.609815,34.6898323 136.609815,32.8319396 C136.609815,31.0024116 137.106191,29.5168289 138.098958,28.3751467 C139.091725,27.2334646 140.389394,26.662632 141.992004,26.662632 Z M145.044748,31.7044454 C144.966745,30.8747758 144.785922,30.2117591 144.502274,29.7153756 C143.977526,28.7935204 143.101776,28.3325998 141.875,28.3325998 C140.995692,28.3325998 140.258219,28.6499259 139.662559,29.2845877 C139.066898,29.9192496 138.751345,30.7258607 138.715889,31.7044454 L145.044748,31.7044454 Z" id="App-Store" fill="#3B566E"></path>
                <path d="M36.1759416,35.8344342 C34.8578153,37.7534755 33.4943349,39.6607127 31.3415962,39.7006895 C29.2229525,39.7406662 28.5437496,38.4513374 26.1261805,38.4513374 C23.7060741,38.4513374 22.9490078,39.6607127 20.9486498,39.7406662 C18.8703967,39.8181015 17.29012,37.6680134 15.9611309,35.7576284 C13.2460478,31.8515538 11.173789,24.7131858 13.960757,19.8957986 C15.3408568,17.503379 17.8138341,15.9896767 20.4936805,15.9497157 C22.5346354,15.9123201 24.4626646,17.3196119 25.7092707,17.3196119 C26.9577799,17.3196119 29.2979614,15.6299962 31.7581888,15.8778205 C32.7880146,15.9201738 35.678314,16.2909503 37.534506,18.9950469 C37.3878185,19.0910383 34.0845738,21.0043192 34.1248534,24.9903474 C34.1652916,29.7518301 38.3158352,31.3345316 38.3640438,31.3560939 C38.3264601,31.4679973 37.7005404,33.6155672 36.1759416,35.8344342 Z M27.1372937,10.6472406 C28.276699,9.3179822 30.2018738,8.32928165 31.790698,8.26284784 C31.9936818,10.1092543 31.2475576,11.9582104 30.1455775,13.2905379 C29.0413772,14.6204731 27.2338696,15.6564689 25.4599812,15.51814 C25.2189379,13.7116945 26.1130183,11.8277194 27.1372937,10.6472406 Z" id="logo" fill="#3B566E" fill-rule="nonzero"></path>
            </g>
        </g>
    </g>
</svg>