<?xml version="1.0" encoding="UTF-8"?>
<svg width="160px" height="49px" viewBox="0 0 160 49" version="1.1" xmlns="http://www.w3.org/2000/svg" xmlns:xlink="http://www.w3.org/1999/xlink">
    <!-- Generator: Sketch 52.4 (67378) - http://www.bohemiancoding.com/sketch -->
    <title>Group 5</title>
    <desc>Created with Sketch.</desc>
    <g id="Design" stroke="none" stroke-width="1" fill="none" fill-rule="evenodd">
        <g id="Our-Work-Single" transform="translate(-1017.000000, -446.000000)">
            <g id="Group-5" transform="translate(1017.000000, 446.000000)">
                <rect id="button" stroke="#3B566E" x="0.5" y="0.5" width="159" height="47.0751174" rx="10"></rect>
                <path d="M55.7380689,16.341696 C56.1085226,16.341696 56.4129503,16.3031841 56.6513611,16.226159 C57.0768327,16.0831125 57.4252741,15.8080273 57.6966956,15.400895 C57.9130993,15.0744555 58.0689809,14.6563259 58.1643453,14.1464935 C58.2193631,13.8420613 58.2468717,13.5596404 58.2468717,13.2992224 C58.2468717,12.297897 58.0478933,11.5203226 57.6499307,10.9664759 C57.251968,10.4126293 56.6110193,10.1357101 55.7270653,10.1357101 L53.7849439,10.1357101 L53.7849439,16.341696 L55.7380689,16.341696 Z M52.6845917,9.19490904 L55.9581393,9.19490904 C57.0695005,9.19490904 57.9314343,9.58919794 58.5439667,10.3777876 C59.0904777,11.0893521 59.3637291,12.0008014 59.3637291,13.1121626 C59.3637291,13.9704415 59.2023457,14.746182 58.8795741,15.4394073 C58.311056,16.6644721 57.3335864,17.2769953 55.9471358,17.2769953 L52.6845917,17.2769953 L52.6845917,9.19490904 Z M63.8797942,16.6387911 C64.536341,16.6387911 64.9865639,16.3902974 65.2304765,15.8933025 C65.4743891,15.3963077 65.5963435,14.8433863 65.5963435,14.2345217 C65.5963435,13.6843429 65.5083163,13.2368709 65.332259,12.8920921 C65.0535018,12.349249 64.5730195,12.0778316 63.8907978,12.0778316 C63.2856011,12.0778316 62.8454646,12.3089032 62.5703752,12.7710534 C62.2952858,13.2332036 62.1577432,13.7907098 62.1577432,14.4435886 C62.1577432,15.0707925 62.2952858,15.5934545 62.5703752,16.0115904 C62.8454646,16.4297263 63.2819333,16.6387911 63.8797942,16.6387911 Z M63.9183066,11.2140552 C64.6775533,11.2140552 65.319419,11.4671336 65.8439228,11.9732981 C66.3684266,12.4794626 66.6306745,13.2240268 66.6306745,14.2070129 C66.6306745,15.1569883 66.3996029,15.9418983 65.9374527,16.5617664 C65.4753025,17.1816346 64.7582469,17.491564 63.7862643,17.491564 C62.9756675,17.491564 62.331968,17.2173956 61.8551464,16.6690508 C61.3783247,16.1207059 61.1399175,15.3843943 61.1399175,14.4600939 C61.1399175,13.469772 61.391162,12.6811942 61.8936587,12.0943369 C62.3961553,11.5074795 63.0710312,11.2140552 63.9183066,11.2140552 Z M69.1661059,11.3846097 L70.2994686,16.0280957 L71.4493365,11.3846097 L72.5606922,11.3846097 L73.7160619,16.0005869 L74.9209475,11.3846097 L75.9112644,11.3846097 L74.2002168,17.2769953 L73.1713876,17.2769953 L71.9720038,12.7160358 L70.8111323,17.2769953 L69.7823031,17.2769953 L68.0822591,11.3846097 L69.1661059,11.3846097 Z M77.7479721,11.3846097 L78.6887732,11.3846097 L78.6887732,12.2208773 C78.9675305,11.8760986 79.2627887,11.6285219 79.5745566,11.4781397 C79.8863246,11.3277575 80.2329321,11.2525675 80.6143894,11.2525675 C81.4506612,11.2525675 82.0155029,11.5441579 82.3089316,12.1273474 C82.4703174,12.4464511 82.5510091,12.9030927 82.5510091,13.4972858 L82.5510091,17.2769953 L81.5441869,17.2769953 L81.5441869,13.5633069 C81.5441869,13.2038568 81.4910038,12.9141003 81.3846359,12.6940288 C81.2085786,12.3272429 80.8894797,12.1438527 80.4273295,12.1438527 C80.1925866,12.1438527 80.0000269,12.1676934 79.8496447,12.2153756 C79.5782231,12.2960685 79.3398159,12.4574518 79.1344158,12.6995305 C78.9693622,12.893927 78.8620789,13.0947393 78.8125628,13.3019733 C78.7630467,13.5092073 78.738289,13.8053825 78.738289,14.1905076 L78.738289,17.2769953 L77.7479721,17.2769953 L77.7479721,11.3846097 Z M84.9433947,9.19490904 L85.9337116,9.19490904 L85.9337116,17.2769953 L84.9433947,17.2769953 L84.9433947,9.19490904 Z M90.6588437,16.6387911 C91.3153904,16.6387911 91.7656133,16.3902974 92.0095259,15.8933025 C92.2534385,15.3963077 92.375393,14.8433863 92.375393,14.2345217 C92.375393,13.6843429 92.2873657,13.2368709 92.1113085,12.8920921 C91.8325512,12.349249 91.3520689,12.0778316 90.6698472,12.0778316 C90.0646505,12.0778316 89.6245141,12.3089032 89.3494247,12.7710534 C89.0743353,13.2332036 88.9367926,13.7907098 88.9367926,14.4435886 C88.9367926,15.0707925 89.0743353,15.5934545 89.3494247,16.0115904 C89.6245141,16.4297263 90.0609827,16.6387911 90.6588437,16.6387911 Z M90.697356,11.2140552 C91.4566028,11.2140552 92.0984684,11.4671336 92.6229722,11.9732981 C93.147476,12.4794626 93.409724,13.2240268 93.409724,14.2070129 C93.409724,15.1569883 93.1786523,15.9418983 92.7165021,16.5617664 C92.2543519,17.1816346 91.5372963,17.491564 90.5653138,17.491564 C89.754717,17.491564 89.1110174,17.2173956 88.6341958,16.6690508 C88.1573742,16.1207059 87.9189669,15.3843943 87.9189669,14.4600939 C87.9189669,13.469772 88.1702115,12.6811942 88.6727081,12.0943369 C89.1752048,11.5074795 89.8500806,11.2140552 90.697356,11.2140552 Z M96.2477522,15.7089935 C96.2477522,15.9950865 96.3522846,16.2206565 96.5613525,16.3857101 C96.7704205,16.5507637 97.0179972,16.6332893 97.3040902,16.6332893 C97.6525368,16.6332893 97.9899747,16.5525976 98.3164141,16.3912119 C98.866593,16.1234582 99.1416782,15.6851556 99.1416782,15.0762911 L99.1416782,14.2785358 C99.0206389,14.3555608 98.8647572,14.4197474 98.6740286,14.4710974 C98.4832999,14.5224474 98.2962419,14.5591255 98.112849,14.5811326 L97.5131571,14.6581573 C97.1537069,14.7058394 96.8841234,14.7810294 96.7043983,14.8837295 C96.399966,15.0561188 96.2477522,15.3312041 96.2477522,15.7089935 Z M98.6465198,13.7063527 C98.873927,13.6770098 99.0261409,13.5816469 99.1031659,13.4202612 C99.1471802,13.3322325 99.169187,13.2056933 99.169187,13.0406397 C99.169187,12.7031967 99.0490665,12.4583708 98.8088217,12.3061546 C98.568577,12.1539385 98.2247204,12.0778316 97.7772416,12.0778316 C97.2600735,12.0778316 96.8932932,12.2172081 96.6768895,12.4959654 C96.5558502,12.6500154 96.4769924,12.8792532 96.4403138,13.1836854 L95.516018,13.1836854 C95.5343573,12.4574494 95.7700137,11.9522095 96.2229942,11.6679504 C96.6759748,11.3836914 97.2013877,11.241564 97.7992486,11.241564 C98.4924739,11.241564 99.0554818,11.3736049 99.4882891,11.6376907 C99.9174286,11.9017766 100.131995,12.3125706 100.131995,12.8700851 L100.131995,16.2646714 C100.131995,16.3673714 100.153085,16.449897 100.195265,16.5122506 C100.237446,16.5746042 100.32639,16.6057805 100.462101,16.6057805 C100.506115,16.6057805 100.55563,16.6030297 100.610648,16.5975279 C100.665666,16.5920261 100.724351,16.5837735 100.786705,16.57277 L100.786705,17.3045041 C100.632655,17.3485184 100.515285,17.3760269 100.434592,17.3870305 C100.353899,17.3980341 100.243865,17.4035358 100.104486,17.4035358 C99.7633755,17.4035358 99.5157987,17.2824983 99.3617486,17.0404196 C99.2810558,16.9120445 99.2242048,16.7304883 99.1911941,16.4957453 C98.9894618,16.7598311 98.6997054,16.9890689 98.3219159,17.1834654 C97.9441265,17.3778619 97.5278307,17.4750587 97.0730163,17.4750587 C96.5265053,17.4750587 96.0799502,17.3090906 95.7333376,16.9771494 C95.3867249,16.6452081 95.2134212,16.2298294 95.2134212,15.7310006 C95.2134212,15.1844896 95.3839741,14.7608583 95.7250849,14.4600939 C96.0661958,14.1593295 96.5136678,13.9741054 97.0675145,13.9044161 L98.6465198,13.7063527 Z M103.283624,14.3995745 C103.283624,15.0304462 103.417499,15.55861 103.685252,15.9840816 C103.953006,16.4095532 104.382139,16.6222858 104.972664,16.6222858 C105.431147,16.6222858 105.808013,16.4251413 106.103276,16.0308465 C106.398539,15.6365517 106.546168,15.070793 106.546168,14.3335534 C106.546168,13.5889781 106.393954,13.0378906 106.089522,12.6802744 C105.785089,12.3226581 105.409139,12.1438527 104.961661,12.1438527 C104.462832,12.1438527 104.058457,12.3345785 103.748522,12.7160358 C103.438588,13.0974931 103.283624,13.6586671 103.283624,14.3995745 Z M104.774601,11.2800763 C105.225747,11.2800763 105.603531,11.3754392 105.907963,11.5661678 C106.084021,11.6762036 106.283916,11.8687633 106.507655,12.1438527 L106.507655,9.16740023 L107.45946,9.16740023 L107.45946,17.2769953 L106.568175,17.2769953 L106.568175,16.457233 C106.3371,16.820351 106.063848,17.082599 105.748412,17.2439847 C105.432977,17.4053705 105.071698,17.4860622 104.664566,17.4860622 C104.008019,17.4860622 103.439509,17.21006 102.95902,16.6580472 C102.47853,16.1060345 102.238289,15.3715568 102.238289,14.4545921 C102.238289,13.5963132 102.45744,12.852666 102.89575,12.2236282 C103.334059,11.5945905 103.960336,11.2800763 104.774601,11.2800763 Z M116.194495,16.6387911 C116.851042,16.6387911 117.301265,16.3902974 117.545177,15.8933025 C117.78909,15.3963077 117.911045,14.8433863 117.911045,14.2345217 C117.911045,13.6843429 117.823017,13.2368709 117.64696,12.8920921 C117.368203,12.349249 116.88772,12.0778316 116.205499,12.0778316 C115.600302,12.0778316 115.160166,12.3089032 114.885076,12.7710534 C114.609987,13.2332036 114.472444,13.7907098 114.472444,14.4435886 C114.472444,15.0707925 114.609987,15.5934545 114.885076,16.0115904 C115.160166,16.4297263 115.596634,16.6387911 116.194495,16.6387911 Z M116.233008,11.2140552 C116.992254,11.2140552 117.63412,11.4671336 118.158624,11.9732981 C118.683128,12.4794626 118.945376,13.2240268 118.945376,14.2070129 C118.945376,15.1569883 118.714304,15.9418983 118.252154,16.5617664 C117.790003,17.1816346 117.072948,17.491564 116.100965,17.491564 C115.290369,17.491564 114.646669,17.2173956 114.169847,16.6690508 C113.693026,16.1207059 113.454618,15.3843943 113.454618,14.4600939 C113.454618,13.469772 113.705863,12.6811942 114.20836,12.0943369 C114.710856,11.5074795 115.385732,11.2140552 116.233008,11.2140552 Z M121.024161,11.3846097 L121.964962,11.3846097 L121.964962,12.2208773 C122.243719,11.8760986 122.538977,11.6285219 122.850745,11.4781397 C123.162513,11.3277575 123.509121,11.2525675 123.890578,11.2525675 C124.72685,11.2525675 125.291692,11.5441579 125.58512,12.1273474 C125.746506,12.4464511 125.827198,12.9030927 125.827198,13.4972858 L125.827198,17.2769953 L124.820376,17.2769953 L124.820376,13.5633069 C124.820376,13.2038568 124.767192,12.9141003 124.660824,12.6940288 C124.484767,12.3272429 124.165668,12.1438527 123.703518,12.1438527 C123.468775,12.1438527 123.276216,12.1676934 123.125833,12.2153756 C122.854412,12.2960685 122.616005,12.4574518 122.410604,12.6995305 C122.245551,12.893927 122.138268,13.0947393 122.088751,13.3019733 C122.039235,13.5092073 122.014478,13.8053825 122.014478,14.1905076 L122.014478,17.2769953 L121.024161,17.2769953 L121.024161,11.3846097 Z" id="Download-on" fill="#3B566E"></path>
                <path d="M114.812207,37.2447183 C115.551647,37.2447183 116.166371,36.9351557 116.656397,36.3160211 C117.146423,35.6968866 117.391432,34.7711329 117.391432,33.5387324 C117.391432,32.7875549 117.282865,32.1420215 117.065728,31.6021127 C116.654928,30.5633751 115.903761,30.0440141 114.812207,30.0440141 C113.714783,30.0440141 112.963617,30.5927175 112.558685,31.6901408 C112.341548,32.2769982 112.232981,33.022296 112.232981,33.9260563 C112.232981,34.6537595 112.341548,35.2728848 112.558685,35.7834507 C112.969486,36.757634 113.720652,37.2447183 114.812207,37.2447183 Z M110.710094,28.9260563 L112.250587,28.9260563 L112.250587,30.1760563 C112.56749,29.7476504 112.913731,29.416081 113.289319,29.181338 C113.823359,28.8292236 114.451287,28.653169 115.173122,28.653169 C116.241203,28.653169 117.147884,29.0624959 117.893192,29.881162 C118.638501,30.699828 119.01115,31.8691239 119.01115,33.3890845 C119.01115,35.4430854 118.474184,36.9102069 117.400235,37.790493 C116.71948,38.3480075 115.927235,38.6267606 115.023474,38.6267606 C114.313377,38.6267606 113.717725,38.4712457 113.236502,38.1602113 C112.954811,37.984154 112.640847,37.681927 112.294601,37.2535211 L112.294601,42.068662 L110.710094,42.068662 L110.710094,28.9260563 Z M120.903756,25.3785211 L122.488263,25.3785211 L122.488263,38.3098592 L120.903756,38.3098592 L120.903756,25.3785211 Z M126.079812,35.8010563 C126.079812,36.2588051 126.247064,36.619717 126.581573,36.8838028 C126.916081,37.1478886 127.312204,37.2799296 127.769953,37.2799296 C128.327468,37.2799296 128.867368,37.1508229 129.389671,36.8926056 C130.269957,36.4641997 130.710094,35.7629157 130.710094,34.7887324 L130.710094,33.5123239 C130.516431,33.635564 130.26702,33.7382625 129.961854,33.8204225 C129.656689,33.9025826 129.357396,33.9612674 129.063967,33.9964789 L128.10446,34.1197183 C127.52934,34.1960098 127.098006,34.3163137 126.810446,34.4806338 C126.323354,34.7564568 126.079812,35.1965932 126.079812,35.8010563 Z M129.91784,32.596831 C130.281692,32.5498824 130.525234,32.3973018 130.648474,32.1390845 C130.718897,31.9982387 130.754108,31.795776 130.754108,31.5316901 C130.754108,30.9917813 130.561915,30.6000599 130.177523,30.3565141 C129.793132,30.1129683 129.242961,29.9911972 128.526995,29.9911972 C127.699526,29.9911972 127.112678,30.2141996 126.766432,30.6602113 C126.572769,30.9066914 126.446597,31.2734717 126.387911,31.7605634 L124.909038,31.7605634 C124.93838,30.5985857 125.315431,29.7902018 126.0402,29.3353873 C126.764968,28.8805728 127.605629,28.653169 128.562207,28.653169 C129.671367,28.653169 130.57218,28.8644345 131.264671,29.2869718 C131.951295,29.7095092 132.294601,30.3667796 132.294601,31.2588028 L132.294601,36.6901408 C132.294601,36.8544609 132.328345,36.9865018 132.395833,37.0862676 C132.463322,37.1860334 132.605633,37.2359155 132.82277,37.2359155 C132.893193,37.2359155 132.972417,37.2315141 133.060446,37.2227113 C133.148475,37.2139084 133.24237,37.2007043 133.342136,37.1830986 L133.342136,38.3538732 C133.095656,38.4242961 132.907864,38.4683098 132.778756,38.4859155 C132.649647,38.5035212 132.473593,38.5123239 132.250587,38.5123239 C131.704809,38.5123239 131.308687,38.3186639 131.062207,37.931338 C130.933098,37.7259379 130.842136,37.4354479 130.789319,37.0598592 C130.466548,37.4823965 130.002937,37.8491768 129.398474,38.1602113 C128.794011,38.4712457 128.127938,38.6267606 127.400235,38.6267606 C126.525817,38.6267606 125.811329,38.3612116 125.256749,37.8301056 C124.702169,37.2989997 124.424883,36.6343937 124.424883,35.8362676 C124.424883,34.9618501 124.697767,34.28404 125.243545,33.8028169 C125.789322,33.3215938 126.505277,33.0252353 127.391432,32.9137324 L129.91784,32.596831 Z M140.780516,28.8820423 L142.532277,28.8820423 C142.309271,29.4865054 141.813384,30.8655996 141.044601,33.0193662 C140.469481,34.6390926 139.988265,35.9595019 139.600939,36.9806338 C138.685441,39.3867491 138.039908,40.8538706 137.664319,41.3820423 C137.288731,41.9102139 136.643197,42.1742958 135.7277,42.1742958 C135.504694,42.1742958 135.333041,42.165493 135.212735,42.1478873 C135.092429,42.1302816 134.94425,42.0980049 134.768192,42.0510563 L134.768192,40.6073944 C135.044015,40.6836858 135.243544,40.7306337 135.366784,40.7482394 C135.490024,40.7658452 135.598591,40.7746479 135.692488,40.7746479 C135.985917,40.7746479 136.201584,40.7262329 136.339495,40.6294014 C136.477407,40.5325699 136.593309,40.4137331 136.687207,40.2728873 C136.716549,40.2259387 136.822182,39.9853308 137.004108,39.5510563 C137.186034,39.1167819 137.318075,38.7940151 137.400235,38.5827465 L133.914319,28.8820423 L135.710094,28.8820423 L138.236502,36.5580986 L140.780516,28.8820423 Z" id="play" fill="#3B566E"></path>
                <path d="M61.808,31.904 C62.0533346,31.904 62.2506659,31.9759993 62.4,32.12 C62.5493341,32.2640007 62.624,32.4533322 62.624,32.688 L62.624,36.128 C62.624,36.6186691 62.5600006,36.9653323 62.432,37.168 C62.3039994,37.3706677 62.0426686,37.5359994 61.648,37.664 C61.2213312,37.8133341 60.7253362,37.9306662 60.16,38.016 C59.5946638,38.1013338 59.0506693,38.144 58.528,38.144 C57.3653275,38.144 56.3573376,37.914669 55.504,37.456 C54.6506624,36.997331 53.9973356,36.3333377 53.544,35.464 C53.0906644,34.5946623 52.864,33.5573394 52.864,32.352 C52.864,31.1679941 53.0906644,30.1413377 53.544,29.272 C53.9973356,28.4026623 54.6399958,27.7360023 55.472,27.272 C56.3040042,26.8079977 57.2853277,26.576 58.416,26.576 C59.9200075,26.576 61.1519952,26.9813293 62.112,27.792 C62.2400006,27.9093339 62.333333,28.0266661 62.392,28.144 C62.450667,28.2613339 62.48,28.3999992 62.48,28.56 C62.48,28.7946678 62.4160006,28.9919992 62.288,29.152 C62.1599994,29.3120008 62.0053342,29.392 61.824,29.392 C61.7066661,29.392 61.6000005,29.3733335 61.504,29.336 C61.4079995,29.2986665 61.2960006,29.2373338 61.168,29.152 C60.6986643,28.8213317 60.2613354,28.589334 59.856,28.456 C59.4506646,28.322666 58.9920026,28.256 58.48,28.256 C57.3173275,28.256 56.440003,28.5999966 55.848,29.288 C55.255997,29.9760034 54.96,30.9973266 54.96,32.352 C54.96,35.1253472 56.1759878,36.512 58.608,36.512 C59.333337,36.512 60.058663,36.4106677 60.784,36.208 L60.784,33.376 L58.976,33.376 C58.7199987,33.376 58.5200007,33.3120006 58.376,33.184 C58.2319993,33.0559994 58.16,32.8746678 58.16,32.64 C58.16,32.4053322 58.2319993,32.2240006 58.376,32.096 C58.5200007,31.9679994 58.7199987,31.904 58.976,31.904 L61.808,31.904 Z M68.336,38.128 C67.535996,38.128 66.8346697,37.9626683 66.232,37.632 C65.6293303,37.3013317 65.1626683,36.8266698 64.832,36.208 C64.5013317,35.5893302 64.336,34.8693374 64.336,34.048 C64.336,33.2266626 64.5013317,32.5093364 64.832,31.896 C65.1626683,31.2826636 65.6293303,30.8106683 66.232,30.48 C66.8346697,30.1493317 67.535996,29.984 68.336,29.984 C69.136004,29.984 69.8373303,30.1493317 70.44,30.48 C71.0426697,30.8106683 71.506665,31.2826636 71.832,31.896 C72.157335,32.5093364 72.32,33.2266626 72.32,34.048 C72.32,34.8693374 72.157335,35.5893302 71.832,36.208 C71.506665,36.8266698 71.0426697,37.3013317 70.44,37.632 C69.8373303,37.9626683 69.136004,38.128 68.336,38.128 Z M68.32,36.576 C68.9706699,36.576 69.466665,36.3626688 69.808,35.936 C70.149335,35.5093312 70.32,34.8800042 70.32,34.048 C70.32,33.2266626 70.149335,32.6000022 69.808,32.168 C69.466665,31.7359978 68.9760032,31.52 68.336,31.52 C67.6959968,31.52 67.2026684,31.7359978 66.856,32.168 C66.5093316,32.6000022 66.336,33.2266626 66.336,34.048 C66.336,34.8800042 66.506665,35.5093312 66.848,35.936 C67.189335,36.3626688 67.6799968,36.576 68.32,36.576 Z M77.536,38.128 C76.735996,38.128 76.0346697,37.9626683 75.432,37.632 C74.8293303,37.3013317 74.3626683,36.8266698 74.032,36.208 C73.7013317,35.5893302 73.536,34.8693374 73.536,34.048 C73.536,33.2266626 73.7013317,32.5093364 74.032,31.896 C74.3626683,31.2826636 74.8293303,30.8106683 75.432,30.48 C76.0346697,30.1493317 76.735996,29.984 77.536,29.984 C78.336004,29.984 79.0373303,30.1493317 79.64,30.48 C80.2426697,30.8106683 80.706665,31.2826636 81.032,31.896 C81.357335,32.5093364 81.52,33.2266626 81.52,34.048 C81.52,34.8693374 81.357335,35.5893302 81.032,36.208 C80.706665,36.8266698 80.2426697,37.3013317 79.64,37.632 C79.0373303,37.9626683 78.336004,38.128 77.536,38.128 Z M77.52,36.576 C78.1706699,36.576 78.666665,36.3626688 79.008,35.936 C79.349335,35.5093312 79.52,34.8800042 79.52,34.048 C79.52,33.2266626 79.349335,32.6000022 79.008,32.168 C78.666665,31.7359978 78.1760032,31.52 77.536,31.52 C76.8959968,31.52 76.4026684,31.7359978 76.056,32.168 C75.7093316,32.6000022 75.536,33.2266626 75.536,34.048 C75.536,34.8800042 75.706665,35.5093312 76.048,35.936 C76.389335,36.3626688 76.8799968,36.576 77.52,36.576 Z M89.792,30.016 C90.0906682,30.016 90.3306658,30.1013325 90.512,30.272 C90.6933342,30.4426675 90.784,30.6719986 90.784,30.96 L90.784,37.28 C90.784,38.5066728 90.4426701,39.4346635 89.76,40.064 C89.0773299,40.6933365 88.06934,41.008 86.736,41.008 C85.5733275,41.008 84.6026706,40.7893355 83.824,40.352 C83.4293314,40.1173322 83.232,39.8346683 83.232,39.504 C83.232,39.2693322 83.2879994,39.0826674 83.4,38.944 C83.5120006,38.8053326 83.6586658,38.736 83.84,38.736 C83.9360005,38.736 84.0533326,38.7599998 84.192,38.808 C84.3306674,38.8560002 84.4746659,38.9119997 84.624,38.976 C85.0080019,39.1360008 85.3519985,39.2586662 85.656,39.344 C85.9600015,39.4293338 86.3093314,39.472 86.704,39.472 C88.1013403,39.472 88.8,38.7893402 88.8,37.424 L88.8,36.4 C88.5653322,36.8373355 88.2240022,37.1759988 87.776,37.416 C87.3279978,37.6560012 86.8160029,37.776 86.24,37.776 C85.5573299,37.776 84.9520026,37.613335 84.424,37.288 C83.8959974,36.962665 83.4826682,36.5066696 83.184,35.92 C82.8853318,35.3333304 82.736,34.6560038 82.736,33.888 C82.736,33.1199962 82.8826652,32.440003 83.176,31.848 C83.4693348,31.255997 83.882664,30.797335 84.416,30.472 C84.949336,30.146665 85.5573299,29.984 86.24,29.984 C86.8160029,29.984 87.3279978,30.1039988 87.776,30.344 C88.2240022,30.5840012 88.5653322,30.9226645 88.8,31.36 L88.8,30.944 C88.8,30.6666653 88.8906658,30.4426675 89.072,30.272 C89.2533342,30.1013325 89.4933318,30.016 89.792,30.016 Z M86.768,36.224 C87.4080032,36.224 87.9066649,36.0160021 88.264,35.6 C88.6213351,35.1839979 88.8,34.613337 88.8,33.888 C88.8,33.1519963 88.6213351,32.5760021 88.264,32.16 C87.9066649,31.7439979 87.4080032,31.536 86.768,31.536 C86.1386635,31.536 85.6426685,31.7439979 85.28,32.16 C84.9173315,32.5760021 84.736,33.1519963 84.736,33.888 C84.736,34.613337 84.9173315,35.1839979 85.28,35.6 C85.6426685,36.0160021 86.1386635,36.224 86.768,36.224 Z M93.84,38.096 C93.5519986,38.096 93.3146676,38.0133342 93.128,37.848 C92.9413324,37.6826658 92.848,37.4453349 92.848,37.136 L92.848,27.584 C92.848,27.2746651 92.9413324,27.0400008 93.128,26.88 C93.3146676,26.7199992 93.5519986,26.64 93.84,26.64 C94.1280014,26.64 94.367999,26.7199992 94.56,26.88 C94.752001,27.0400008 94.848,27.2746651 94.848,27.584 L94.848,37.136 C94.848,37.4453349 94.752001,37.6826658 94.56,37.848 C94.367999,38.0133342 94.1280014,38.096 93.84,38.096 Z M103.104,35.856 C103.285334,35.856 103.431999,35.9253326 103.544,36.064 C103.656001,36.2026674 103.712,36.3893322 103.712,36.624 C103.712,36.9546683 103.514669,37.2319989 103.12,37.456 C102.757332,37.6586677 102.346669,37.8213327 101.888,37.944 C101.429331,38.0666673 100.992002,38.128 100.576,38.128 C99.317327,38.128 98.3200037,37.765337 97.584,37.04 C96.8479963,36.314663 96.48,35.322673 96.48,34.064 C96.48,33.263996 96.6399984,32.5546698 96.96,31.936 C97.2800016,31.3173302 97.7306638,30.837335 98.312,30.496 C98.8933362,30.154665 99.5519963,29.984 100.288,29.984 C100.992004,29.984 101.605331,30.1386651 102.128,30.448 C102.650669,30.7573349 103.055999,31.1946638 103.344,31.76 C103.632001,32.3253362 103.776,32.9919962 103.776,33.76 C103.776,34.218669 103.573335,34.448 103.168,34.448 L98.448,34.448 C98.5120003,35.1840037 98.7199982,35.7253316 99.072,36.072 C99.4240018,36.4186684 99.9359966,36.592 100.608,36.592 C100.949335,36.592 101.250665,36.5493338 101.512,36.464 C101.773335,36.3786662 102.069332,36.2613341 102.4,36.112 C102.720002,35.9413325 102.954666,35.856 103.104,35.856 Z M100.336,31.392 C99.7919973,31.392 99.357335,31.562665 99.032,31.904 C98.706665,32.245335 98.5120003,32.7359968 98.448,33.376 L102.064,33.376 C102.042667,32.7253301 101.882668,32.2320017 101.584,31.896 C101.285332,31.5599983 100.869336,31.392 100.336,31.392 Z" id="Google" fill="#3B566E"></path>
                <path d="M12.0187793,37.0056077 L12.0187793,11.0725302 C12.0187793,10.1675725 12.5434295,9.38532414 13.304787,9.01408451 L28.3058335,24.034645 L13.298754,39.0610329 C12.5406567,38.6886644 12.0187793,37.9082313 12.0187793,37.0056077 Z M33.0649654,28.7997717 L16.6622771,38.2821253 L29.5986817,25.3290107 L33.0649654,28.7997717 Z M38.1635347,22.2210076 C38.7091027,22.6391404 39.0610329,23.2979931 39.0610329,24.0390689 C39.0610329,24.7690088 38.7197672,25.4190137 38.1882156,25.8379092 L34.7041069,27.8521466 L30.8913776,24.034645 L34.7015169,20.2195537 L38.1635347,22.2210076 Z M16.6718904,9.79672953 L33.0623755,19.2719896 L29.5986817,22.7401268 L16.6718904,9.79672953 Z" id="logo" fill="#3B566E" fill-rule="nonzero"></path>
            </g>
        </g>
    </g>
</svg>